<mxfile host="www.draw.io" modified="2020-02-13T05:56:55.941Z" agent="Mozilla/5.0 (Macintosh; Intel Mac OS X 10_15_3) AppleWebKit/537.36 (KHTML, like Gecko) Chrome/79.0.3945.130 Safari/537.36" etag="0Q6mCugRH3hw06l2mlAb" version="12.6.8" type="github">
  <diagram id="peSgpNI3BcgGdvSU9K40" name="Page-1">
    <mxGraphModel dx="905" dy="623" grid="1" gridSize="10" guides="1" tooltips="1" connect="1" arrows="1" fold="1" page="1" pageScale="1" pageWidth="1169" pageHeight="827" math="0" shadow="0">
      <root>
        <mxCell id="0"/>
        <mxCell id="1" parent="0"/>
        <mxCell id="VliR9g0e-GEGa0XOMWeD-1" value="0x8B" style="rounded=0;whiteSpace=wrap;html=1;fontStyle=1;fontSize=14;" parent="1" vertex="1">
          <mxGeometry x="141" y="85" width="40" height="40" as="geometry"/>
        </mxCell>
        <mxCell id="VliR9g0e-GEGa0XOMWeD-2" value="0xAA" style="rounded=0;whiteSpace=wrap;html=1;fontStyle=1;fontSize=14;" parent="1" vertex="1">
          <mxGeometry x="181" y="85" width="40" height="40" as="geometry"/>
        </mxCell>
        <mxCell id="VliR9g0e-GEGa0XOMWeD-3" value="0x11" style="rounded=0;whiteSpace=wrap;html=1;fontStyle=1;fontSize=14;" parent="1" vertex="1">
          <mxGeometry x="221" y="85" width="40" height="40" as="geometry"/>
        </mxCell>
        <mxCell id="VliR9g0e-GEGa0XOMWeD-4" value="0x00" style="rounded=0;whiteSpace=wrap;html=1;fontStyle=1;fontSize=14;" parent="1" vertex="1">
          <mxGeometry x="261" y="85" width="40" height="40" as="geometry"/>
        </mxCell>
        <mxCell id="VliR9g0e-GEGa0XOMWeD-5" value="0x00" style="rounded=0;whiteSpace=wrap;html=1;fontStyle=1;fontSize=14;" parent="1" vertex="1">
          <mxGeometry x="301" y="85" width="40" height="40" as="geometry"/>
        </mxCell>
        <mxCell id="VliR9g0e-GEGa0XOMWeD-6" value="0x00" style="rounded=0;whiteSpace=wrap;html=1;fontStyle=1;fontSize=14;" parent="1" vertex="1">
          <mxGeometry x="341" y="85" width="40" height="40" as="geometry"/>
        </mxCell>
        <mxCell id="VliR9g0e-GEGa0XOMWeD-7" value="0x00" style="rounded=0;whiteSpace=wrap;html=1;fontStyle=1;fontSize=14;" parent="1" vertex="1">
          <mxGeometry x="381" y="85" width="40" height="40" as="geometry"/>
        </mxCell>
        <mxCell id="VliR9g0e-GEGa0XOMWeD-8" value="0x00" style="rounded=0;whiteSpace=wrap;html=1;fontStyle=1;fontSize=14;" parent="1" vertex="1">
          <mxGeometry x="421" y="85" width="40" height="40" as="geometry"/>
        </mxCell>
        <mxCell id="VliR9g0e-GEGa0XOMWeD-28" value="" style="shape=curlyBracket;whiteSpace=wrap;html=1;rounded=1;fontSize=14;rotation=-90;" parent="1" vertex="1">
          <mxGeometry x="291" y="-15" width="20" height="320" as="geometry"/>
        </mxCell>
        <mxCell id="VliR9g0e-GEGa0XOMWeD-29" value="8 bytes uint64" style="text;html=1;strokeColor=none;fillColor=none;align=center;verticalAlign=middle;whiteSpace=wrap;rounded=0;fontSize=14;" parent="1" vertex="1">
          <mxGeometry x="221" y="156" width="164" height="20" as="geometry"/>
        </mxCell>
        <mxCell id="ZOe7THteKk9-Ha0sNbh8-1" value=".osrm.nbg_nodes" style="text;html=1;strokeColor=none;fillColor=none;align=left;verticalAlign=middle;whiteSpace=wrap;rounded=0;fontSize=16;fontStyle=1" parent="1" vertex="1">
          <mxGeometry x="39" y="10" width="245" height="20" as="geometry"/>
        </mxCell>
        <mxCell id="1GXQoTSjyK3YCtDIwdtC-1" value="/common/nbn_data/coordinates.meta" style="text;html=1;strokeColor=none;fillColor=none;align=left;verticalAlign=middle;whiteSpace=wrap;rounded=0;fontSize=16;fontStyle=1" parent="1" vertex="1">
          <mxGeometry x="181" y="50" width="245" height="20" as="geometry"/>
        </mxCell>
        <mxCell id="1GXQoTSjyK3YCtDIwdtC-2" value="&lt;font&gt;&lt;span style=&quot;font-size: 14px ; font-weight: normal&quot;&gt;Indicates how many coordinates stored in &lt;br&gt;&lt;/span&gt;&lt;span style=&quot;font-size: 14px&quot;&gt;/common/nbn_data/coordinates&lt;br&gt;&lt;/span&gt;&lt;br&gt;&lt;span style=&quot;font-size: 14px ; font-weight: 400 ; text-align: center&quot;&gt;Sample value:&amp;nbsp;&lt;/span&gt;&lt;b style=&quot;font-size: 14px ; text-align: center&quot;&gt;1157771&lt;/b&gt;&lt;br&gt;&lt;/font&gt;" style="text;html=1;strokeColor=#d6b656;fillColor=#fff2cc;align=left;verticalAlign=middle;whiteSpace=wrap;rounded=0;fontSize=16;fontStyle=1" parent="1" vertex="1">
          <mxGeometry x="499.5" y="85" width="320" height="90" as="geometry"/>
        </mxCell>
        <mxCell id="1GXQoTSjyK3YCtDIwdtC-5" value="/common/nbn_data/coordinates" style="text;html=1;strokeColor=none;fillColor=none;align=left;verticalAlign=middle;whiteSpace=wrap;rounded=0;fontSize=16;fontStyle=1" parent="1" vertex="1">
          <mxGeometry x="180" y="285" width="245" height="20" as="geometry"/>
        </mxCell>
        <mxCell id="1GXQoTSjyK3YCtDIwdtC-6" value="0x19" style="rounded=0;whiteSpace=wrap;html=1;fontStyle=1;fontSize=14;" parent="1" vertex="1">
          <mxGeometry x="199.5" y="325" width="40" height="40" as="geometry"/>
        </mxCell>
        <mxCell id="1GXQoTSjyK3YCtDIwdtC-7" value="0xC4" style="rounded=0;whiteSpace=wrap;html=1;fontStyle=1;fontSize=14;" parent="1" vertex="1">
          <mxGeometry x="239.5" y="325" width="40" height="40" as="geometry"/>
        </mxCell>
        <mxCell id="1GXQoTSjyK3YCtDIwdtC-8" value="0xD8" style="rounded=0;whiteSpace=wrap;html=1;fontStyle=1;fontSize=14;" parent="1" vertex="1">
          <mxGeometry x="279.5" y="325" width="40" height="40" as="geometry"/>
        </mxCell>
        <mxCell id="1GXQoTSjyK3YCtDIwdtC-9" value="0xF8" style="rounded=0;whiteSpace=wrap;html=1;fontStyle=1;fontSize=14;" parent="1" vertex="1">
          <mxGeometry x="319.5" y="325" width="40" height="40" as="geometry"/>
        </mxCell>
        <mxCell id="1GXQoTSjyK3YCtDIwdtC-10" value="0x8C" style="rounded=0;whiteSpace=wrap;html=1;fontStyle=1;fontSize=14;" parent="1" vertex="1">
          <mxGeometry x="359.5" y="325" width="40" height="40" as="geometry"/>
        </mxCell>
        <mxCell id="1GXQoTSjyK3YCtDIwdtC-11" value="0xDB" style="rounded=0;whiteSpace=wrap;html=1;fontStyle=1;fontSize=14;" parent="1" vertex="1">
          <mxGeometry x="399.5" y="325" width="40" height="40" as="geometry"/>
        </mxCell>
        <mxCell id="1GXQoTSjyK3YCtDIwdtC-12" value="0x59" style="rounded=0;whiteSpace=wrap;html=1;fontStyle=1;fontSize=14;" parent="1" vertex="1">
          <mxGeometry x="439.5" y="325" width="40" height="40" as="geometry"/>
        </mxCell>
        <mxCell id="1GXQoTSjyK3YCtDIwdtC-13" value="0x02" style="rounded=0;whiteSpace=wrap;html=1;fontStyle=1;fontSize=14;" parent="1" vertex="1">
          <mxGeometry x="479.5" y="325" width="40" height="40" as="geometry"/>
        </mxCell>
        <mxCell id="1GXQoTSjyK3YCtDIwdtC-14" value="" style="shape=curlyBracket;whiteSpace=wrap;html=1;rounded=1;fontSize=14;rotation=-90;" parent="1" vertex="1">
          <mxGeometry x="270" y="305" width="20" height="160" as="geometry"/>
        </mxCell>
        <mxCell id="1GXQoTSjyK3YCtDIwdtC-15" value="4 bytes int32&lt;br&gt;&lt;b&gt;FixedLon&lt;/b&gt;&lt;b&gt;&lt;br&gt;&lt;/b&gt;" style="text;html=1;strokeColor=none;fillColor=none;align=center;verticalAlign=middle;whiteSpace=wrap;rounded=0;fontSize=14;" parent="1" vertex="1">
          <mxGeometry x="180" y="388.5" width="199" height="55" as="geometry"/>
        </mxCell>
        <mxCell id="1GXQoTSjyK3YCtDIwdtC-24" value="" style="shape=curlyBracket;whiteSpace=wrap;html=1;rounded=1;fontSize=14;rotation=-90;" parent="1" vertex="1">
          <mxGeometry x="430" y="305" width="20" height="160" as="geometry"/>
        </mxCell>
        <mxCell id="1GXQoTSjyK3YCtDIwdtC-30" value="&lt;span style=&quot;font-size: 14px ; font-weight: 400&quot;&gt;Precision of&lt;/span&gt;&lt;span style=&quot;font-size: 14px ; font-weight: 400&quot;&gt;&amp;nbsp;FixedLon/FixedLat is&amp;nbsp;&lt;/span&gt;&lt;span style=&quot;font-size: 14px&quot;&gt;1e6&lt;/span&gt;&lt;span style=&quot;font-size: 14px ; font-weight: 400&quot;&gt;.&lt;br&gt;&lt;/span&gt;&lt;span style=&quot;font-size: 14px ; font-weight: 400&quot;&gt;&lt;br&gt;Sample values&lt;br&gt;&amp;nbsp; - FixedLon: &lt;/span&gt;&lt;span style=&quot;font-size: 14px&quot;&gt;-120011751&lt;br&gt;&lt;span style=&quot;font-weight: 400&quot;&gt;&amp;nbsp; - FixedLat: &lt;/span&gt;39443340&lt;/span&gt;&lt;span style=&quot;font-size: 14px ; font-weight: 400&quot;&gt;&lt;br&gt;&lt;/span&gt;" style="text;html=1;strokeColor=#d6b656;fillColor=#fff2cc;align=left;verticalAlign=middle;whiteSpace=wrap;rounded=0;fontSize=16;fontStyle=1" parent="1" vertex="1">
          <mxGeometry x="551.5" y="320" width="268" height="117" as="geometry"/>
        </mxCell>
        <mxCell id="1GXQoTSjyK3YCtDIwdtC-31" value="" style="shape=curlyBracket;whiteSpace=wrap;html=1;rounded=1;fontSize=14;rotation=0;" parent="1" vertex="1">
          <mxGeometry x="160" y="325" width="20" height="410" as="geometry"/>
        </mxCell>
        <mxCell id="1GXQoTSjyK3YCtDIwdtC-32" value="" style="rounded=0;whiteSpace=wrap;html=1;" parent="1" vertex="1">
          <mxGeometry x="200.5" y="505" width="319.5" height="40" as="geometry"/>
        </mxCell>
        <mxCell id="1GXQoTSjyK3YCtDIwdtC-33" value="" style="rounded=0;whiteSpace=wrap;html=1;" parent="1" vertex="1">
          <mxGeometry x="200.5" y="555" width="319.5" height="40" as="geometry"/>
        </mxCell>
        <mxCell id="1GXQoTSjyK3YCtDIwdtC-34" value="" style="endArrow=none;dashed=1;html=1;strokeWidth=10;strokeColor=#000000;rounded=1;dashPattern=1 1;" parent="1" edge="1">
          <mxGeometry width="50" height="50" relative="1" as="geometry">
            <mxPoint x="220.5" y="674" as="sourcePoint"/>
            <mxPoint x="220.5" y="614" as="targetPoint"/>
            <Array as="points">
              <mxPoint x="221" y="624"/>
            </Array>
          </mxGeometry>
        </mxCell>
        <mxCell id="1GXQoTSjyK3YCtDIwdtC-35" value="&lt;b&gt;coordinates, &lt;br&gt;count: coordinates.meta&lt;/b&gt;" style="text;html=1;strokeColor=none;fillColor=none;align=center;verticalAlign=middle;whiteSpace=wrap;rounded=0;fontSize=14;" parent="1" vertex="1">
          <mxGeometry y="497.5" width="170" height="65" as="geometry"/>
        </mxCell>
        <mxCell id="1GXQoTSjyK3YCtDIwdtC-36" value="" style="rounded=0;whiteSpace=wrap;html=1;" parent="1" vertex="1">
          <mxGeometry x="199.5" y="695" width="320.5" height="40" as="geometry"/>
        </mxCell>
        <mxCell id="1GXQoTSjyK3YCtDIwdtC-38" value="4 bytes int32&lt;br&gt;&lt;b&gt;FixedLat&lt;/b&gt;&lt;b&gt;&lt;br&gt;&lt;/b&gt;" style="text;html=1;strokeColor=none;fillColor=none;align=center;verticalAlign=middle;whiteSpace=wrap;rounded=0;fontSize=14;" parent="1" vertex="1">
          <mxGeometry x="339.5" y="388.5" width="199" height="55" as="geometry"/>
        </mxCell>
      </root>
    </mxGraphModel>
  </diagram>
</mxfile>
